<mxfile host="app.diagrams.net" agent="Mozilla/5.0 (Windows NT 10.0; Win64; x64) AppleWebKit/537.36 (KHTML, like Gecko) Chrome/122.0.0.0 Safari/537.36" version="26.2.9">
  <diagram name="1 oldal" id="ohfmbEw8cCkdrReCNdVJ">
    <mxGraphModel dx="3439" dy="939" grid="1" gridSize="10" guides="1" tooltips="1" connect="1" arrows="1" fold="1" page="1" pageScale="1" pageWidth="827" pageHeight="1169" math="0" shadow="0">
      <root>
        <mxCell id="0" />
        <mxCell id="1" parent="0" />
        <mxCell id="IHHWrMH8fhH2cyxZNXDR-1608" value="" style="rounded=0;whiteSpace=wrap;html=1;" vertex="1" parent="1">
          <mxGeometry x="-1480" y="350" width="1080" height="580" as="geometry" />
        </mxCell>
        <mxCell id="IHHWrMH8fhH2cyxZNXDR-1609" value="" style="rounded=0;whiteSpace=wrap;html=1;" vertex="1" parent="1">
          <mxGeometry x="-1480" y="350" width="1080" height="120" as="geometry" />
        </mxCell>
        <mxCell id="IHHWrMH8fhH2cyxZNXDR-1612" value="" style="rounded=0;whiteSpace=wrap;html=1;" vertex="1" parent="1">
          <mxGeometry x="-500.0000000000002" y="350" width="100" height="120" as="geometry" />
        </mxCell>
        <mxCell id="IHHWrMH8fhH2cyxZNXDR-1613" value="Kezdőlap" style="rounded=0;whiteSpace=wrap;html=1;" vertex="1" parent="1">
          <mxGeometry x="-1370.0000000000002" y="380" width="70" height="60" as="geometry" />
        </mxCell>
        <mxCell id="IHHWrMH8fhH2cyxZNXDR-1614" value="" style="rounded=0;whiteSpace=wrap;html=1;" vertex="1" parent="1">
          <mxGeometry x="-770.0000000000002" y="410" width="120" height="60" as="geometry" />
        </mxCell>
        <mxCell id="IHHWrMH8fhH2cyxZNXDR-1615" value="Zenék" style="rounded=0;whiteSpace=wrap;html=1;" vertex="1" parent="1">
          <mxGeometry x="-1270.0000000000002" y="380" width="80" height="60" as="geometry" />
        </mxCell>
        <mxCell id="IHHWrMH8fhH2cyxZNXDR-1616" value="" style="rounded=0;whiteSpace=wrap;html=1;" vertex="1" parent="1">
          <mxGeometry x="-920.0000000000002" y="410" width="120" height="60" as="geometry" />
        </mxCell>
        <mxCell id="IHHWrMH8fhH2cyxZNXDR-1617" value="Filmek/Sorozatok" style="rounded=0;whiteSpace=wrap;html=1;" vertex="1" parent="1">
          <mxGeometry x="-1155.0000000000002" y="380" width="95" height="60" as="geometry" />
        </mxCell>
        <mxCell id="IHHWrMH8fhH2cyxZNXDR-1618" value="Jelenleg nincsen foglalás" style="rounded=0;whiteSpace=wrap;html=1;" vertex="1" parent="1">
          <mxGeometry x="-1410" y="470" width="940" height="440" as="geometry" />
        </mxCell>
        <mxCell id="IHHWrMH8fhH2cyxZNXDR-1619" value="" style="rounded=0;whiteSpace=wrap;html=1;" vertex="1" parent="1">
          <mxGeometry x="-1460" y="380" width="60" height="60" as="geometry" />
        </mxCell>
        <mxCell id="IHHWrMH8fhH2cyxZNXDR-1620" value="&lt;div&gt;Logo&lt;/div&gt;" style="text;html=1;align=center;verticalAlign=middle;whiteSpace=wrap;rounded=0;" vertex="1" parent="1">
          <mxGeometry x="-1460" y="380" width="60" height="60" as="geometry" />
        </mxCell>
        <mxCell id="IHHWrMH8fhH2cyxZNXDR-1621" value="Rendelési kosár" style="text;html=1;align=center;verticalAlign=middle;whiteSpace=wrap;rounded=0;" vertex="1" parent="1">
          <mxGeometry x="-920.0000000000002" y="420" width="120" height="60" as="geometry" />
        </mxCell>
        <mxCell id="IHHWrMH8fhH2cyxZNXDR-1623" value="margin" style="text;html=1;align=center;verticalAlign=middle;whiteSpace=wrap;rounded=0;" vertex="1" parent="1">
          <mxGeometry x="-1480" y="470" width="70" height="340" as="geometry" />
        </mxCell>
        <mxCell id="IHHWrMH8fhH2cyxZNXDR-1624" value="margin" style="text;html=1;align=center;verticalAlign=middle;whiteSpace=wrap;rounded=0;" vertex="1" parent="1">
          <mxGeometry x="-470.0000000000002" y="470" width="70" height="340" as="geometry" />
        </mxCell>
        <mxCell id="IHHWrMH8fhH2cyxZNXDR-1625" value="Fiók bej/reg" style="rounded=0;whiteSpace=wrap;html=1;" vertex="1" parent="1">
          <mxGeometry x="-495.0000000000002" y="390" width="90" height="40" as="geometry" />
        </mxCell>
        <mxCell id="IHHWrMH8fhH2cyxZNXDR-1626" value="" style="rounded=0;whiteSpace=wrap;html=1;" vertex="1" parent="1">
          <mxGeometry x="-630.0000000000002" y="380" width="120" height="60" as="geometry" />
        </mxCell>
        <mxCell id="IHHWrMH8fhH2cyxZNXDR-1627" value="Kapcsolat" style="text;html=1;align=center;verticalAlign=middle;whiteSpace=wrap;rounded=0;" vertex="1" parent="1">
          <mxGeometry x="-630.0000000000002" y="380" width="120" height="60" as="geometry" />
        </mxCell>
        <mxCell id="IHHWrMH8fhH2cyxZNXDR-1628" value="Foglalási kosár" style="text;html=1;align=center;verticalAlign=middle;whiteSpace=wrap;rounded=0;" vertex="1" parent="1">
          <mxGeometry x="-770.0000000000002" y="420" width="120" height="60" as="geometry" />
        </mxCell>
        <mxCell id="IHHWrMH8fhH2cyxZNXDR-1629" value="Kosár" style="rounded=0;whiteSpace=wrap;html=1;" vertex="1" parent="1">
          <mxGeometry x="-920.0000000000002" y="370" width="270" height="60" as="geometry" />
        </mxCell>
        <mxCell id="IHHWrMH8fhH2cyxZNXDR-1630" value="A kosáron belül lesz külön rendelési és foglalási kosár" style="text;html=1;align=center;verticalAlign=middle;whiteSpace=wrap;rounded=0;" vertex="1" parent="1">
          <mxGeometry x="-780.0000000000002" y="280" width="200" height="30" as="geometry" />
        </mxCell>
        <mxCell id="IHHWrMH8fhH2cyxZNXDR-1631" value="" style="endArrow=classic;html=1;rounded=0;entryX=0.37;entryY=0;entryDx=0;entryDy=0;shape=flexArrow;entryPerimeter=0;exitX=0.135;exitY=0.867;exitDx=0;exitDy=0;exitPerimeter=0;" edge="1" parent="1" source="IHHWrMH8fhH2cyxZNXDR-1630" target="IHHWrMH8fhH2cyxZNXDR-1629">
          <mxGeometry width="50" height="50" relative="1" as="geometry">
            <mxPoint x="-900.0000000000002" y="330" as="sourcePoint" />
            <mxPoint x="-1020.0000000000002" y="410" as="targetPoint" />
          </mxGeometry>
        </mxCell>
        <mxCell id="IHHWrMH8fhH2cyxZNXDR-1632" value="Foglalások" style="rounded=0;whiteSpace=wrap;html=1;" vertex="1" parent="1">
          <mxGeometry x="-1410" y="470" width="180" height="40" as="geometry" />
        </mxCell>
        <mxCell id="IHHWrMH8fhH2cyxZNXDR-1673" value="Foglalások" style="rounded=0;whiteSpace=wrap;html=1;" vertex="1" parent="1">
          <mxGeometry x="-1050.0000000000002" y="380" width="120" height="60" as="geometry" />
        </mxCell>
        <mxCell id="IHHWrMH8fhH2cyxZNXDR-1855" value="Footer" style="rounded=0;whiteSpace=wrap;html=1;" vertex="1" parent="1">
          <mxGeometry x="-1480" y="910" width="1080" height="20" as="geometry" />
        </mxCell>
      </root>
    </mxGraphModel>
  </diagram>
</mxfile>
